PathFileType	4	(X/Y/Z)	C:/Users/opensim2020/Desktop/walking_exp_matlab/subject02_walking08_straight_01.trc	
DataRate	CameraRate	NumFrames	NumMarkers	Units	OrigDataRate	OrigDataStartFrame	OrigNumFrames	
100.00	100.00	8	41	mm	100.00	640	324	
Frame#	Time	LFHD			RFHD			LBHD			RBHD			C7			T10			CLAV			STRN			RBAK			LSHO			LUPA			LELB			LFRM			LWRA			LWRB			LFIN			RSHO			RUPA			RELB			RFRM			RWRA			RWRB			RFIN			LASI			RASI			LPSI			RPSI			LTHI			LKNE			LTIB			LANK			LHEE			LTOE			RTHI			RKNE			RTIB			RANK			RHEE			RTOE			*39			*40			
		X1	Y1	Z1	X2	Y2	Z2	X3	Y3	Z3	X4	Y4	Z4	X5	Y5	Z5	X6	Y6	Z6	X7	Y7	Z7	X8	Y8	Z8	X9	Y9	Z9	X10	Y10	Z10	X11	Y11	Z11	X12	Y12	Z12	X13	Y13	Z13	X14	Y14	Z14	X15	Y15	Z15	X16	Y16	Z16	X17	Y17	Z17	X18	Y18	Z18	X19	Y19	Z19	X20	Y20	Z20	X21	Y21	Z21	X22	Y22	Z22	X23	Y23	Z23	X24	Y24	Z24	X25	Y25	Z25	X26	Y26	Z26	X27	Y27	Z27	X28	Y28	Z28	X29	Y29	Z29	X30	Y30	Z30	X31	Y31	Z31	X32	Y32	Z32	X33	Y33	Z33	X34	Y34	Z34	X35	Y35	Z35	X36	Y36	Z36	X37	Y37	Z37	X38	Y38	Z38	X39	Y39	Z39	X40	Y40	Z40	X41	Y41	Z41	

82	0.810	-1101.93030	-718.45447	1741.39746	-955.72003	-717.05060	1722.02393	-1111.26526	-837.94458	1653.89539	-969.70557	-852.23151	1631.96399	-1036.69775	-883.44440	1516.03223	-1031.42102	-934.11407	1239.65796	-1055.28113	-741.99432	1450.78906	-1043.54529	-687.02264	1280.67358	-967.24579	-936.13184	1342.90259	-1220.13440	-823.56616	1488.57849	-1302.83765	-874.13995	1294.96228	-1317.50293	-905.04736	1160.94360	-1343.00549	-931.37439	1035.68518	-1335.94165	-906.78131	895.90015	-1358.69946	-955.06476	915.87866	-1369.30115	-958.82220	849.15210	-855.28583	-793.03363	1487.24561	-766.91437	-803.14978	1295.95068	-750.76660	-778.44061	1150.82178	-735.98218	-735.63977	1037.75281	-763.21515	-675.91589	916.87592	-724.59943	-717.94220	908.72809	-728.63391	-674.45251	849.58643	-1165.61951	-684.46802	991.74963	-912.60852	-703.18597	962.30237	-1099.24280	-901.57452	1024.26526	-984.06287	-914.75720	1017.07184	-1228.13855	-708.67340	682.73059	-1198.55579	-714.83417	478.46326	-1200.66406	-755.25165	286.56454	-1163.83594	-737.76587	65.61759	-1112.86987	-773.26099	37.01896	-1173.03357	-580.95569	33.20713	-830.35571	-803.25342	658.51837	-829.51807	-807.41669	458.84805	-828.94684	-950.88654	345.67068	-866.05371	-1087.83215	212.11072	-930.14020	-1138.85718	195.83949	-848.49152	-1036.29712	56.54753	-1011.27606	-825.58710	1795.42383	-3360.19678	2845.25830	1033.82898 
83	0.820	-1105.75208	-712.25720	1742.17920	-958.78729	-710.01685	1723.22070	-1114.17236	-830.41840	1654.37903	-972.49036	-845.35284	1632.84119	-1039.46033	-875.95233	1516.97144	-1034.61731	-926.84479	1240.57666	-1057.58252	-734.66919	1451.52332	-1045.47791	-679.89056	1281.17151	-970.38275	-928.72144	1343.40515	-1222.88843	-815.40887	1489.20178	-1305.58484	-865.31122	1294.96985	-1319.92749	-895.46527	1160.85400	-1345.04517	-921.13733	1035.28064	-1337.11865	-896.03961	895.59070	-1360.32434	-944.33563	915.43134	-1370.90503	-947.55914	848.74115	-857.79401	-786.35315	1487.83423	-769.26813	-797.59253	1296.63550	-752.81836	-773.06946	1151.67371	-737.91309	-730.37274	1038.73389	-765.02899	-670.37689	917.83685	-726.37836	-712.57428	909.45856	-730.19482	-669.04523	850.49231	-1167.10742	-676.69879	990.96600	-913.78925	-697.01953	963.04175	-1102.51648	-894.53033	1025.71997	-987.70770	-908.49652	1017.78809	-1229.59851	-704.01703	682.70880	-1199.80347	-712.23083	478.17276	-1201.70361	-753.67773	286.53708	-1163.92310	-737.72296	65.57423	-1112.81421	-773.23553	36.79585	-1173.02014	-580.78564	33.07584	-831.52277	-791.43353	659.75409	-830.47870	-791.02191	460.35858	-831.43726	-935.35199	348.37741	-870.20599	-1072.77051	215.47575	-935.26288	-1122.49475	197.04898	-846.24005	-1020.61499	61.26099	-1014.76831	-818.45813	1796.29749	-3360.30078	2845.23413	1034.07117 
84	0.830	-1108.20398	-704.52460	1742.86975	-961.31293	-702.90002	1724.59143	-1116.96191	-822.86115	1654.84827	-975.25781	-837.59778	1633.90149	-1042.10352	-868.59198	1517.91589	-1037.72131	-919.69543	1241.56750	-1059.71252	-727.40356	1452.17297	-1047.37195	-672.82300	1281.63721	-973.34766	-922.42792	1344.54358	-1225.50916	-807.27173	1489.68201	-1308.18726	-856.23285	1294.86255	-1322.30847	-885.66595	1160.55457	-1347.05896	-910.46301	1034.73828	-1338.01172	-884.83289	895.44391	-1362.05774	-932.83429	914.78046	-1372.60999	-935.48425	848.11932	-860.02747	-779.20154	1488.48779	-771.79224	-791.50220	1297.39063	-754.82214	-767.17474	1152.36353	-739.82379	-724.80597	1039.00610	-766.44904	-664.70807	918.36719	-728.19489	-706.96771	910.14807	-731.81940	-663.40106	851.22571	-1168.55859	-669.03589	990.24786	-914.77600	-690.92145	963.85895	-1105.48975	-887.56171	1026.98621	-990.99310	-902.17114	1018.46198	-1230.91113	-699.37390	682.64648	-1200.92151	-709.99402	477.95285	-1202.50916	-752.39374	286.49927	-1163.87646	-737.64294	65.49682	-1112.82739	-773.28290	36.83527	-1172.96375	-580.60980	32.88919	-832.61115	-779.77515	661.11029	-831.76514	-775.00708	462.15961	-834.38965	-919.92438	350.79874	-874.29199	-1056.89758	217.57069	-940.24268	-1105.55664	197.13377	-844.01373	-1004.26587	65.30397	-1017.86877	-811.62756	1796.93555	-3360.17822	2845.20581	1033.97461 
85	0.840	-1110.00903	-696.28943	1743.69458	-964.03040	-695.97363	1725.70813	-1119.57092	-815.35724	1655.32593	-977.84418	-830.30658	1634.77136	-1044.68347	-861.32965	1518.81250	-1040.70825	-912.60559	1242.52283	-1061.76001	-720.21460	1452.76636	-1049.13513	-665.88116	1282.05994	-976.30853	-914.79480	1345.14587	-1228.09973	-798.97595	1490.23059	-1310.83289	-846.89050	1294.78271	-1324.60925	-875.66064	1160.14368	-1348.97327	-899.42206	1034.23743	-1338.97595	-872.92468	895.14929	-1363.76086	-920.82117	913.84491	-1374.08679	-922.76123	847.39819	-862.29260	-772.89868	1489.22913	-773.86578	-785.73871	1298.19421	-756.70825	-761.68085	1153.12366	-741.51746	-719.11725	1039.91882	-767.71417	-658.84406	919.30322	-730.10809	-701.39294	910.81818	-733.41370	-657.66077	852.14233	-1170.12463	-661.51642	989.73212	-915.69464	-684.91052	964.70789	-1108.11926	-880.86060	1028.11963	-993.96710	-895.82233	1019.18921	-1232.25806	-694.72131	682.54980	-1201.95825	-708.08392	477.80185	-1202.77917	-751.29663	286.29922	-1163.81262	-737.59918	65.46789	-1112.78088	-773.29169	36.83679	-1172.95801	-580.42230	32.75697	-833.60461	-768.01685	662.56903	-833.09406	-759.96808	464.36160	-837.73755	-904.58435	352.77570	-878.13446	-1040.54773	218.85419	-944.84229	-1087.71240	196.04517	-841.85822	-986.54700	68.74500	-1020.85919	-804.52930	1797.82837	-3357.36401	2845.82275	1034.23010 
86	0.850	-1112.50769	-688.90717	1744.48438	-966.54218	-688.82458	1726.81360	-1122.08716	-807.89130	1655.64368	-980.44434	-822.92474	1635.61462	-1047.25220	-854.02191	1519.66919	-1043.59241	-905.61176	1243.51892	-1063.75537	-713.11145	1453.31006	-1050.92920	-658.93896	1282.52319	-979.10150	-907.83813	1346.00269	-1230.60205	-790.73688	1490.94397	-1313.05396	-837.17035	1294.62427	-1327.04333	-865.35321	1159.98999	-1350.78088	-887.85626	1033.60522	-1339.72009	-860.55670	894.94720	-1365.11536	-908.34888	913.23572	-1375.62573	-909.23560	846.66071	-864.33600	-765.84302	1489.90405	-776.35223	-780.10059	1298.89941	-758.50946	-756.23181	1154.03870	-743.46448	-714.31317	1040.59424	-769.34344	-653.12866	920.21600	-731.78772	-695.70441	911.65106	-735.10120	-651.68799	853.12158	-1171.67871	-654.66705	989.39459	-916.65588	-678.87616	965.65198	-1110.35266	-874.25006	1028.94141	-996.55341	-889.38477	1019.99731	-1233.54883	-690.12561	682.37671	-1202.89368	-706.46716	477.69351	-1203.10901	-750.85614	286.40631	-1163.75146	-737.57831	65.50018	-1112.73828	-773.23584	36.89178	-1172.89221	-580.25714	32.64565	-834.62006	-755.92615	664.03741	-834.32013	-745.22949	466.37631	-840.87604	-889.35620	354.26202	-881.87323	-1023.75586	219.12218	-948.98236	-1068.99622	193.75858	-840.12329	-968.22607	71.24798	-1023.70166	-797.49573	1798.55469	-3360.31592	2845.22412	1034.05530 
87	0.860	-1114.53210	-681.36224	1745.03076	-968.64587	-681.92975	1727.85815	-1124.54053	-800.35394	1656.27954	-982.74982	-815.91553	1636.42163	-1049.72900	-846.73566	1520.48303	-1046.34277	-898.70142	1244.49365	-1065.60999	-706.02191	1453.83191	-1052.57935	-652.11035	1282.96814	-981.86401	-901.11609	1346.98767	-1232.99500	-782.46039	1491.52161	-1315.80859	-827.42896	1294.67444	-1329.16284	-854.67596	1159.61084	-1352.68274	-875.88336	1032.96423	-1340.25244	-847.64966	894.72833	-1366.46460	-895.24762	912.26141	-1376.66150	-895.01599	845.84906	-866.57135	-759.60236	1490.69531	-778.35498	-774.29883	1299.72168	-760.29041	-751.29358	1154.70166	-745.14783	-708.55420	1041.37463	-771.72382	-647.70343	921.09705	-733.56842	-690.01984	912.45575	-736.67029	-645.70959	854.13013	-1173.54639	-647.73853	989.69031	-917.66760	-672.87073	966.68152	-1112.40637	-867.93469	1029.75171	-998.80933	-882.87408	1020.86810	-1234.75610	-685.64307	682.11249	-1203.81201	-704.94562	477.59116	-1203.24841	-750.66901	286.56042	-1163.68042	-737.58075	65.52227	-1112.61865	-773.26685	36.93150	-1172.87256	-580.11285	32.53835	-835.64032	-744.07916	665.45575	-836.16425	-729.65839	468.12186	-843.93378	-873.70502	355.31516	-885.12305	-1006.19647	218.45435	-952.58038	-1050.43054	191.04593	-838.82697	-949.17938	73.06809	-1026.47083	-790.38763	1799.31238	-3360.26440	2845.18042	1033.97986 
88	0.870	-1113.64075	-671.03943	1744.75647	-970.88849	-674.77283	1728.78833	-1126.76184	-792.84290	1656.75879	-985.13580	-808.66803	1637.26196	-1052.18628	-839.36493	1521.16687	-1048.88367	-891.89374	1245.39050	-1067.38025	-698.99554	1454.34375	-1054.27563	-645.29456	1283.42383	-984.37518	-894.29706	1347.78357	-1235.35107	-774.14642	1492.17688	-1317.85254	-817.48090	1294.57471	-1331.40527	-843.79254	1159.36633	-1354.91919	-863.35858	1032.43555	-1340.88843	-834.14008	894.54913	-1367.77014	-881.58557	911.39801	-1377.75696	-880.27985	845.12573	-868.59076	-752.60883	1491.35339	-780.63641	-768.53510	1300.38477	-761.94122	-745.53381	1155.30664	-746.85669	-702.75378	1041.82263	-773.32019	-641.81024	921.88867	-735.25952	-684.18512	913.20044	-738.28796	-639.93964	855.20001	-1174.75598	-641.66833	990.28870	-918.90936	-666.80945	967.91443	-1114.14929	-861.62372	1030.13489	-1000.63232	-876.25275	1021.63025	-1235.80151	-681.47888	681.83624	-1204.67786	-703.41406	477.48486	-1203.53589	-750.42303	286.71320	-1163.62659	-737.63306	65.53214	-1112.56384	-773.28650	36.94736	-1172.91052	-580.21051	32.42256	-836.75378	-732.28845	666.89178	-837.91418	-715.33289	470.12070	-846.84595	-857.91980	355.83981	-888.13440	-987.94910	216.62926	-955.65259	-1031.13184	186.98688	-838.07635	-928.16736	73.96572	-1029.02002	-783.25806	1800.02551			 
89	0.880	-1119.00317	-666.96130	1746.13232	-973.06494	-667.90808	1729.31116	-1128.90796	-785.43933	1657.20911	-987.29785	-801.59180	1638.06018	-1054.40369	-832.43872	1521.94897	-1051.34399	-885.08771	1246.20911	-1069.11243	-691.99005	1454.81750	-1055.98010	-638.55408	1283.81897	-986.93665	-887.99640	1348.65430	-1237.50659	-765.91443	1492.83057	-1320.40662	-807.52020	1294.72766	-1333.32434	-832.37836	1159.02502	-1356.20398	-850.79150	1031.76611	-1341.07703	-820.25690	894.46362	-1369.04761	-867.41534	910.53540	-1379.25977	-865.08673	844.27539	-870.57214	-746.40869	1491.99878	-782.54156	-763.53656	1301.18262	-763.56104	-740.25348	1156.08716	-748.36060	-696.96130	1042.64136	-774.76794	-635.93622	922.99359	-737.01978	-678.44293	913.98206	-739.83765	-633.91705	856.12000	-1176.44446	-635.54688	991.21942	-920.48041	-660.48505	969.23633	-1115.68127	-855.31689	1030.29993	-1002.04285	-869.67987	1022.42755	-1236.70752	-677.73315	681.58105	-1205.48364	-701.74689	477.39709	-1203.80725	-749.79797	286.85010	-1163.58984	-737.61273	65.53195	-1112.76477	-773.70776	37.23654	-1172.75903	-579.87555	32.35535	-837.81287	-720.86920	668.29755	-839.65613	-701.06238	472.07938	-849.68292	-841.88055	355.87567	-890.78979	-969.10919	214.02971	-958.00037	-1011.71503	182.55827	-837.58282	-906.50629	74.40643	-1031.53345	-775.94452	1800.70520			 
